<?xml version="1.0" encoding="UTF-8"?>
<svg version="1.1" xmlns="http://www.w3.org/2000/svg" width="1200" height="960">
<path d="M0 0 C0.8560414 -0.00175304 1.71208281 -0.00350607 2.59406486 -0.00531223 C5.45203241 -0.00995058 8.30994859 -0.00751234 11.16791821 -0.00507832 C13.24190839 -0.00694737 15.31589823 -0.00924846 17.38988751 -0.01194364 C23.08138164 -0.01805622 28.77286107 -0.01792868 34.46435773 -0.01674926 C40.60559304 -0.01654512 46.74682364 -0.02206527 52.88805676 -0.02680683 C64.91656947 -0.03511078 76.94507594 -0.03787451 88.97359077 -0.03841921 C98.75063929 -0.03887905 108.52768622 -0.04093897 118.30473423 -0.04411983 C121.12078307 -0.0450174 123.93683191 -0.04590721 126.75288075 -0.04679471 C127.80304475 -0.04712628 127.80304475 -0.04712628 128.87442418 -0.04746456 C148.56200153 -0.05361709 168.24957832 -0.05756528 187.93715668 -0.05712128 C188.67913862 -0.0571057 189.42112057 -0.05709012 190.18558682 -0.05707407 C193.94611811 -0.05699096 197.70664941 -0.05689192 201.46718071 -0.05678936 C202.58743054 -0.05675944 202.58743054 -0.05675944 203.73031169 -0.05672892 C205.2405895 -0.05668848 206.75086731 -0.05664669 208.26114511 -0.05660353 C231.75906228 -0.05599076 255.25696501 -0.06349827 278.75487804 -0.07717609 C305.16456911 -0.09254255 331.57425069 -0.10114199 357.9839465 -0.10021287 C360.80093841 -0.10013824 363.61793031 -0.10008954 366.43492222 -0.10005856 C367.12851933 -0.1000469 367.82211644 -0.10003525 368.53673165 -0.10002324 C379.68908059 -0.09999249 390.84141698 -0.106373 401.99376219 -0.11499082 C413.20503285 -0.12347491 424.4162854 -0.12427999 435.6275591 -0.1178815 C441.69884871 -0.11461475 447.77009292 -0.11456531 453.84137821 -0.12323475 C459.4021957 -0.13109358 464.96293174 -0.12967455 470.52374723 -0.12095062 C472.5324271 -0.11941429 474.54111304 -0.12123677 476.54978577 -0.12681069 C489.38388669 -0.1600578 501.67409354 -0.11001046 513.69555187 4.94113445 C514.32018322 5.20104168 514.94481457 5.46094891 515.58837414 5.72873211 C520.86797307 7.95779058 526.01177883 10.43855749 531.07055187 13.12863445 C531.07055187 13.78863445 531.07055187 14.44863445 531.07055187 15.12863445 C531.77566906 15.35550945 532.48078625 15.58238445 533.20727062 15.81613445 C536.64784988 17.39326219 539.1566865 19.5655693 541.88305187 22.12863445 C542.40786144 22.61775311 542.93267101 23.10687176 543.4733839 23.61081219 C551.09248387 30.85047491 556.98614359 38.94929855 562.07055187 48.12863445 C562.43922375 48.77187664 562.80789562 49.41511883 563.18773937 50.0778532 C569.10696483 61.02153747 571.21677864 72.77578473 571.23168468 85.05856609 C571.23664959 86.04317822 571.24161449 87.02779034 571.24672985 88.04223919 C571.26130148 91.2910969 571.26814634 94.53990572 571.27367687 97.7887907 C571.27943389 100.05835756 571.28519155 102.32792441 571.29094982 104.59749126 C571.30144662 109.35616564 571.30729745 114.11482319 571.31078625 118.8735075 C571.316258 124.94350457 571.34026358 131.01327587 571.3687582 137.08320236 C571.38747166 141.77351288 571.39259488 146.46377005 571.39412212 151.15411472 C571.39713123 153.3902074 571.40510018 155.62629953 571.4183073 157.86235523 C571.57371898 186.20526749 563.91311579 209.23375182 543.69555187 229.75363445 C539.93414191 233.41900842 535.78683677 236.37596659 531.44555187 239.31613445 C530.66953625 239.84593914 529.89352062 240.37574383 529.09398937 240.9216032 C527.07055187 242.12863445 527.07055187 242.12863445 525.07055187 242.12863445 C524.74055187 242.78863445 524.41055187 243.44863445 524.07055187 244.12863445 C521.33378675 245.39543403 518.6263795 246.53646376 515.82055187 247.62863445 C515.07547375 247.93672039 514.33039562 248.24480633 513.56273937 248.5622282 C502.02593065 253.0876094 490.05448549 253.42597741 477.8022871 253.40710735 C476.30201142 253.41212163 474.80173843 253.4180007 473.30146915 253.42466009 C469.21485842 253.44033723 465.12831666 253.44388392 461.0416795 253.44530869 C456.62126086 253.44902439 452.20087911 253.46419052 447.78048229 253.47792339 C440.13376985 253.50013223 432.48707064 253.51518374 424.84033298 253.52529049 C413.78461507 253.53991339 402.7289433 253.56546023 391.67325256 253.59362178 C373.73351367 253.63902432 355.79376812 253.67566608 337.85399914 253.70675945 C320.43341432 253.73697182 303.01284579 253.7713344 285.59228039 253.81125164 C283.97994539 253.81494396 283.97994539 253.81494396 282.33503797 253.81871088 C276.94230634 253.831086 271.54957489 253.84354243 266.15684354 253.85603929 C221.46143572 253.95950915 176.76600765 254.04874462 132.07055187 254.12863445 C131.89416431 255.14544041 131.89416431 255.14544041 131.71421337 256.1827879 C131.46702305 257.52363697 131.46702305 257.52363697 131.21483898 258.89157391 C131.05599728 259.77569454 130.89715557 260.65981518 130.73350048 261.57072735 C128.444826 270.40130131 119.06294791 277.44224557 112.78417492 283.67575359 C111.0015992 285.4475481 109.23004133 287.22986216 107.45922375 289.01340008 C106.31858891 290.15271426 105.17733433 291.2914084 104.03539562 292.4294157 C103.51130611 292.95755367 102.98721661 293.48569164 102.4472456 294.02983379 C96.81763418 299.58857624 92.12056049 302.23005161 84.25805187 302.37863445 C83.44723156 302.4044157 82.63641125 302.43019695 81.80102062 302.45675945 C75.07864452 301.64892026 70.65582324 298.31997292 66.02367687 293.61300945 C65.21685467 292.8119276 65.21685467 292.8119276 64.39373302 291.99466228 C63.26627678 290.86991164 62.14379008 289.74015928 61.02611828 288.60568523 C59.32504594 286.88318513 57.6036703 285.18308664 55.87914562 283.4841032 C54.78020467 282.38251874 53.68250535 281.27969395 52.58617687 280.17550945 C52.07677563 279.67420513 51.56737438 279.17290081 51.04253674 278.65640545 C47.03876546 274.54695635 44.49476027 270.37584875 43.74242687 264.6169157 C43.76820812 263.89890789 43.79398937 263.18090008 43.82055187 262.44113445 C43.843755 261.35252117 43.843755 261.35252117 43.86742687 260.2419157 C44.07156017 258.11814429 44.53291042 256.18950357 45.07055187 254.12863445 C44.4206831 254.1205476 43.77081432 254.11246075 43.10125256 254.10412884 C36.28679636 254.01751889 29.47261238 253.91799647 22.6584425 253.81125164 C20.12137993 253.77316342 17.58426707 253.73827688 15.04711437 253.70675945 C11.38286999 253.66066833 7.71896596 253.60274934 4.05492687 253.54269695 C2.93567822 253.53114574 1.81642956 253.51959454 0.66326427 253.50769329 C-24.45679212 253.04562964 -44.15734978 243.61324298 -61.92944813 226.12863445 C-62.86788563 225.23531414 -63.80632313 224.34199383 -64.77319813 223.4216032 C-66.92944813 221.12863445 -66.92944813 221.12863445 -66.92944813 219.12863445 C-67.58944813 219.12863445 -68.24944813 219.12863445 -68.92944813 219.12863445 C-84.52719898 198.88275385 -87.41264459 176.38263497 -87.36304188 151.57394695 C-87.3676194 149.53625601 -87.37292953 147.49856659 -87.37892628 145.46087933 C-87.38779355 141.21676594 -87.38550788 136.97284136 -87.37549305 132.72873211 C-87.36401287 127.34442646 -87.38423379 121.96077765 -87.41341019 116.57655811 C-87.4319344 112.37581667 -87.43144774 108.17522796 -87.42577267 103.97445583 C-87.42562142 101.99173213 -87.43149883 100.00899672 -87.44406414 98.02631283 C-87.56637531 75.57141343 -83.90103013 55.9501456 -70.92944813 37.12863445 C-70.13087391 36.34359539 -70.13087391 36.34359539 -69.31616688 35.54269695 C-67.66481006 34.06548776 -67.66481006 34.06548776 -66.92944813 31.12863445 C-65.47933102 29.87626059 -64.02317741 28.62942872 -62.52319813 27.4372282 C-60.75352105 26.03372518 -60.75352105 26.03372518 -58.67944813 23.81613445 C-42.34719659 7.85507045 -22.65319835 -0.05969842 0 0 Z M-45.67944813 111.94113445 C-52.39013548 121.44794153 -53.78378021 130.64397028 -52.92944813 142.12863445 C-51.11107038 150.77140581 -46.98065056 157.7071274 -39.61694813 162.6950407 C-33.00281309 166.51339826 -27.71362249 167.32939148 -20.17944813 167.37863445 C-19.40601063 167.39925945 -18.63257313 167.41988445 -17.83569813 167.44113445 C-12.20806535 167.4789038 -8.09335946 166.36868731 -2.92944813 164.12863445 C-2.92944813 160.49863445 -2.92944813 156.86863445 -2.92944813 153.12863445 C-3.81245594 153.36840008 -4.69546375 153.6081657 -5.60522938 153.85519695 C-13.43618972 155.78980585 -20.18634779 156.93714881 -27.92944813 154.12863445 C-29.27713269 153.1480611 -30.61325299 152.15108647 -31.92944813 151.12863445 C-32.58944813 151.12863445 -33.24944813 151.12863445 -33.92944813 151.12863445 C-38.85915287 141.62134674 -39.7582427 133.53859848 -36.92944813 123.12863445 C-34.7518066 118.21137939 -31.34637247 114.95554676 -26.43726063 112.7809782 C-18.81599719 110.79850002 -10.26929627 111.33250183 -2.92944813 114.12863445 C-2.92944813 110.16863445 -2.92944813 106.20863445 -2.92944813 102.12863445 C-18.92910154 97.10913534 -33.98481709 99.98071634 -45.67944813 111.94113445 Z M12.34789562 111.09738445 C5.66924316 120.15540942 3.87072717 131.08656621 5.50414562 142.03488445 C7.23833941 150.5658253 10.49534779 156.79225486 17.60961437 161.98019695 C26.71842786 167.64969444 36.49158756 168.87839534 47.03148937 166.4450407 C55.85042857 163.1752494 61.93901797 157.5530903 66.07055187 149.12863445 C69.80135158 139.17983524 69.55833216 126.27101611 65.39867687 116.5309782 C60.97484415 108.52904548 55.26499674 104.12649786 46.82055187 100.87863445 C33.71469588 98.25746326 21.3433187 100.81690094 12.34789562 111.09738445 Z M271.67992687 112.12863445 C264.57740701 120.95506691 264.0546504 132.2941112 265.07055187 143.12863445 C267.26492424 152.79296873 271.48083708 158.30008525 279.55883312 163.7966032 C285.36215413 166.87425867 291.01635938 167.48743448 297.44555187 167.44113445 C298.18926037 167.43984539 298.93296886 167.43855633 299.69921398 167.4372282 C305.32948685 167.33880761 309.87324364 166.39655077 315.07055187 164.12863445 C315.07055187 160.49863445 315.07055187 156.86863445 315.07055187 153.12863445 C314.12180187 153.43800945 313.17305187 153.74738445 312.19555187 154.06613445 C303.06261602 156.63073664 295.55924727 156.71154993 286.88305187 152.62863445 C282.09692217 148.37429694 279.61819792 143.48517472 278.58617687 137.15988445 C278.2455491 129.81746368 279.89009303 124.17598313 284.07055187 118.12863445 C287.87479049 114.32439584 291.7377762 112.33174424 297.12133312 111.86300945 C303.45777042 111.89336364 309.01308893 112.22825392 315.07055187 114.12863445 C315.07055187 110.16863445 315.07055187 106.20863445 315.07055187 102.12863445 C298.59086448 97.65956669 283.84203772 99.64363571 271.67992687 112.12863445 Z M477.07055187 108.12863445 C474.1862504 112.97468508 473.61116298 117.49323178 474.49633312 123.0231657 C476.01408201 128.58824498 479.55897466 131.84636983 484.07055187 135.12863445 C486.72818124 136.59137967 489.45349152 137.89502396 492.19555187 139.19113445 C493.61758214 139.86371634 495.03696967 140.54192055 496.45336437 141.2262907 C497.07614269 141.52027752 497.69892101 141.81426434 498.3405714 142.11715984 C500.30000651 143.26279062 501.63679857 144.36589798 503.07055187 146.12863445 C503.50805187 149.62863445 503.50805187 149.62863445 503.07055187 153.12863445 C499.59515409 156.45564446 496.44495541 156.85301469 491.80102062 157.2028532 C485.49322667 157.03139671 479.85497851 154.44240511 474.07055187 152.12863445 C474.07055187 156.08863445 474.07055187 160.04863445 474.07055187 164.12863445 C483.86604782 168.48218821 496.70603127 169.15574845 506.88305187 165.50363445 C512.18669339 162.91114875 514.84826163 159.62877359 517.44555187 154.31613445 C518.56309444 148.61666735 518.03971068 143.96311362 515.32055187 138.81613445 C510.31371748 132.83574893 504.015449 129.90274852 497.13305187 126.57199383 C492.84618353 124.40223678 489.9237334 122.81925991 488.07055187 118.12863445 C488.63305187 115.44113445 488.63305187 115.44113445 490.07055187 113.12863445 C495.46326069 109.61851542 502.76146106 110.59026905 508.85570812 111.58175945 C510.93984703 112.04416745 513.00781427 112.57857109 515.07055187 113.12863445 C515.07055187 109.49863445 515.07055187 105.86863445 515.07055187 102.12863445 C502.4110276 98.69554312 486.63950838 97.62612122 477.07055187 108.12863445 Z M81.07055187 101.12863445 C81.07055187 122.57863445 81.07055187 144.02863445 81.07055187 166.12863445 C85.03055187 166.12863445 88.99055187 166.12863445 93.07055187 166.12863445 C93.40055187 150.61863445 93.73055187 135.10863445 94.07055187 119.12863445 C105.29986106 135.97259823 105.29986106 135.97259823 109.16405773 141.95187664 C110.22780679 143.59404878 111.29952252 145.23107679 112.37743664 146.86398602 C114.79464982 150.53547013 117.149716 154.17072618 119.18383312 158.0700407 C121.10174507 161.81233724 121.10174507 161.81233724 125.07055187 166.12863445 C129.69055187 166.12863445 134.31055187 166.12863445 139.07055187 166.12863445 C139.07055187 144.67863445 139.07055187 123.22863445 139.07055187 101.12863445 C135.11055187 101.12863445 131.15055187 101.12863445 127.07055187 101.12863445 C126.74055187 116.30863445 126.41055187 131.48863445 126.07055187 147.12863445 C119.86243188 137.81645446 113.70010909 128.50604751 107.69555187 119.06613445 C106.33409493 116.92908292 104.97213232 114.79235343 103.60961437 112.6559782 C103.0238966 111.73550701 102.43817883 110.81503582 101.83471203 109.86667156 C99.94480407 106.93346955 98.00608409 104.03193277 96.07055187 101.12863445 C91.12055187 101.12863445 86.17055187 101.12863445 81.07055187 101.12863445 Z M150.07055187 101.12863445 C150.07055187 104.42863445 150.07055187 107.72863445 150.07055187 111.12863445 C156.01055187 111.12863445 161.95055187 111.12863445 168.07055187 111.12863445 C168.07055187 129.27863445 168.07055187 147.42863445 168.07055187 166.12863445 C172.36055187 166.12863445 176.65055187 166.12863445 181.07055187 166.12863445 C181.07055187 147.97863445 181.07055187 129.82863445 181.07055187 111.12863445 C187.34055187 111.12863445 193.61055187 111.12863445 200.07055187 111.12863445 C200.07055187 107.82863445 200.07055187 104.52863445 200.07055187 101.12863445 C183.57055187 101.12863445 167.07055187 101.12863445 150.07055187 101.12863445 Z M221.07055187 101.12863445 C215.12109548 116.13749035 209.58900579 131.28774786 204.11690807 146.47566509 C203.03356469 149.48112006 201.93857717 152.48103007 200.81811047 155.47287273 C200.45153332 156.45368816 200.08495617 157.43450359 199.70727062 158.4450407 C199.38846935 159.28623455 199.06966808 160.1274284 198.74120617 160.99411297 C197.9206783 163.23274378 197.9206783 163.23274378 198.07055187 166.12863445 C202.36055187 166.12863445 206.65055187 166.12863445 211.07055187 166.12863445 C212.72055187 161.50863445 214.37055187 156.88863445 216.07055187 152.12863445 C224.32055187 152.12863445 232.57055187 152.12863445 241.07055187 152.12863445 C242.72055187 156.74863445 244.37055187 161.36863445 246.07055187 166.12863445 C250.69055187 166.12863445 255.31055187 166.12863445 260.07055187 166.12863445 C256.24178995 154.43287235 252.28150849 142.81155155 247.98070812 131.2809782 C245.64802225 125.01916283 243.39242014 118.72969466 241.13305187 112.44113445 C240.73102551 111.32255047 240.32899914 110.20396648 239.91479015 109.05148602 C238.9661229 106.41074659 238.01824894 103.76972221 237.07055187 101.12863445 C231.79055187 101.12863445 226.51055187 101.12863445 221.07055187 101.12863445 Z M322.07055187 101.12863445 C322.07055187 104.42863445 322.07055187 107.72863445 322.07055187 111.12863445 C328.34055187 111.12863445 334.61055187 111.12863445 341.07055187 111.12863445 C341.07055187 129.27863445 341.07055187 147.42863445 341.07055187 166.12863445 C345.03055187 166.12863445 348.99055187 166.12863445 353.07055187 166.12863445 C353.40055187 148.30863445 353.73055187 130.48863445 354.07055187 112.12863445 C360.01055187 111.79863445 365.95055187 111.46863445 372.07055187 111.12863445 C372.07055187 107.82863445 372.07055187 104.52863445 372.07055187 101.12863445 C355.57055187 101.12863445 339.07055187 101.12863445 322.07055187 101.12863445 Z M409.07055187 101.12863445 C408.99604512 107.65733667 408.94178116 114.1857879 408.90575695 120.71481609 C408.8907291 122.93295895 408.8703011 125.15107238 408.84423351 127.36911297 C408.80758564 130.56897553 408.79076499 133.76844306 408.77758312 136.9684782 C408.76209927 137.95009426 408.74661541 138.93171032 408.73066235 139.94307232 C408.72888061 147.33676489 409.87807297 153.60500765 413.82055187 159.94113445 C420.51113416 166.44586723 427.31963459 167.39040353 436.353755 167.37521648 C443.91596777 167.24135578 449.84381495 165.39603958 455.42559338 160.10808086 C461.05156975 153.33811142 461.64440975 144.41834881 461.46117687 135.9919157 C461.45268719 134.48373524 461.45268719 134.48373524 461.44402599 132.94508648 C461.42187892 129.7765897 461.37172499 126.60928148 461.32055187 123.44113445 C461.30045882 121.27513532 461.28221301 119.10911821 461.26586437 116.94308758 C461.22208547 111.67115478 461.15321153 106.40009514 461.07055187 101.12863445 C457.11055187 101.12863445 453.15055187 101.12863445 449.07055187 101.12863445 C449.05596935 102.38933758 449.04138683 103.6500407 449.02636242 104.94894695 C448.96812701 109.6531656 448.89089624 114.35691818 448.8081007 119.06076336 C448.77496974 121.09161054 448.74690144 123.12254719 448.72411633 125.1535368 C448.69035211 128.08312164 448.63802588 131.01189536 448.58227062 133.94113445 C448.57268574 135.29005779 448.57268574 135.29005779 448.56290722 136.66623211 C448.41764737 142.97947407 447.76737524 149.24582327 443.25805187 154.06613445 C438.37578432 156.43752155 434.03655284 156.42901426 428.90258312 154.99582195 C425.78008597 153.51779558 424.59430477 151.11519013 423.07055187 148.12863445 C422.14998473 145.36693301 421.92255038 143.6068459 421.86522961 140.74899578 C421.84528439 139.86830929 421.82533916 138.9876228 421.80478954 138.08024883 C421.78807705 137.1332864 421.77136456 136.18632397 421.75414562 135.2106657 C421.73336452 134.23828457 421.71258343 133.26590343 421.6911726 132.26405621 C421.62576439 129.1564878 421.56683258 126.0488346 421.50805187 122.94113445 C421.46485836 120.83500588 421.4212438 118.72888589 421.3771925 116.62277508 C421.27009189 111.45814854 421.16879969 106.29343667 421.07055187 101.12863445 C417.11055187 101.12863445 413.15055187 101.12863445 409.07055187 101.12863445 Z M531.07055187 101.12863445 C530.92423832 115.82501746 531.36433866 130.44948833 532.07055187 145.12863445 C535.37055187 145.12863445 538.67055187 145.12863445 542.07055187 145.12863445 C542.91903519 130.4468427 543.19097665 115.83383755 543.07055187 101.12863445 C539.11055187 101.12863445 535.15055187 101.12863445 531.07055187 101.12863445 Z M531.63305187 155.69113445 C529.73613652 158.15486562 529.73613652 158.15486562 530.13305187 161.75363445 C530.74563637 165.38380369 530.74563637 165.38380369 534.07055187 167.12863445 C538.71542958 167.5772315 538.71542958 167.5772315 543.00805187 166.06613445 C544.70390474 162.97369687 544.50115845 160.57348705 544.07055187 157.12863445 C541.86859164 154.50322033 540.45081608 154.18408965 537.07055187 153.69113445 C534.01844345 153.92558267 534.01844345 153.92558267 531.63305187 155.69113445 Z M70.07055187 229.12863445 C69.33417492 229.83246258 68.59779797 230.5362907 67.83910656 231.26144695 C65.29787845 233.70295981 62.77595876 236.16308931 60.25805187 238.62863445 C59.4334547 239.42334148 58.60885754 240.21804852 57.75927258 241.03683758 C52.11489791 246.62771924 47.15971919 252.20175406 45.40648937 260.1325407 C45.41938 260.97687664 45.43227062 261.82121258 45.44555187 262.69113445 C45.43266125 263.53804852 45.41977062 264.38496258 45.40648937 265.2575407 C47.41251565 273.93065431 54.45155048 279.97916856 60.572505 286.02170086 C62.07814454 287.51114546 63.56693638 289.01611094 65.05492687 290.5231657 C66.01750724 291.48376537 66.98101689 292.44343493 67.94555187 293.40207195 C68.80922375 294.26236004 69.67289562 295.12264812 70.56273937 296.00900555 C75.8467836 300.47513405 81.05033846 300.66951212 87.75805187 300.5856657 C92.79145759 299.89119817 96.48954758 297.70094699 100.07055187 294.12863445 C100.56555187 292.64363445 100.56555187 292.64363445 101.07055187 291.12863445 C101.70992687 290.81925945 102.34930187 290.50988445 103.00805187 290.19113445 C105.22892391 289.30382254 105.22892391 289.30382254 106.07055187 287.12863445 C107.33477951 284.60017917 108.59900716 284.36440681 111.07055187 283.12863445 C111.40055187 282.46863445 111.73055187 281.80863445 112.07055187 281.12863445 C113.07055187 279.12863445 113.07055187 279.12863445 114.88305187 278.2341032 C121.22916019 275.02705204 126.30196784 268.5517494 129.07055187 262.12863445 C130.65647645 255.42149511 130.106404 250.38183614 127.07055187 244.12863445 C125.41346534 241.84127136 123.51086311 239.9107736 121.48461437 237.94894695 C120.94581646 237.41010876 120.40701855 236.87127056 119.85189342 236.31610394 C118.71979736 235.18933066 117.58164092 234.06861618 116.43773937 232.95382977 C114.69295339 231.2510986 112.97067431 229.52780653 111.25023937 227.80050945 C110.14212418 226.70288198 109.03278992 225.60648356 107.92211437 224.51144695 C107.41048748 224.00002148 106.89886059 223.488596 106.37172985 222.96167278 C101.76727384 218.50659852 97.99547854 216.84320861 91.63305187 216.81613445 C90.27373547 216.79099773 90.27373547 216.79099773 88.88695812 216.7653532 C80.88593232 217.79738566 75.60732353 223.80351778 70.07055187 229.12863445 Z " fill="#1DB9EF" transform="translate(452.9294481277466,350.8713655471802)"/>
<path d="M0 0 C13.51433155 11.93765954 23.91514956 30.03163872 25.921875 48.17578125 C26.00281599 50.07091682 26.06300482 51.96698484 26.109375 53.86328125 C26.20605469 55.16394531 26.30273438 56.46460938 26.40234375 57.8046875 C27.34109634 74.31263319 22.24653339 90.73602578 12.109375 103.86328125 C11.64402344 104.518125 11.17867188 105.17296875 10.69921875 105.84765625 C9.421875 107.55078125 9.421875 107.55078125 7.109375 109.86328125 C3.109375 109.86328125 3.109375 109.86328125 1.43359375 108.39453125 C0.89347656 107.72421875 0.35335937 107.05390625 -0.203125 106.36328125 C-0.80769531 105.63109375 -1.41226563 104.89890625 -2.03515625 104.14453125 C-2.64746094 103.39171875 -3.25976562 102.63890625 -3.890625 101.86328125 C-5.0514494 100.52485844 -6.21800022 99.19137763 -7.390625 97.86328125 C-7.97199219 97.198125 -8.55335938 96.53296875 -9.15234375 95.84765625 C-10.27698075 94.56380098 -11.40440533 93.28237998 -12.53515625 92.00390625 C-13.67478109 90.71215351 -14.80056127 89.40808821 -15.9140625 88.09375 C-17.94292294 85.74633425 -17.94292294 85.74633425 -20.5546875 83.2890625 C-25.36360989 78.32435811 -28.41734298 74.60746549 -28.32226562 67.46240234 C-28.24296222 65.98196386 -28.15834229 64.50180042 -28.06835938 63.02197266 C-27.69052777 56.38143228 -28.7898341 52.09368816 -32.890625 46.86328125 C-38.63746698 40.61992902 -43.67449004 36.98674301 -52.265625 36.48828125 C-57.83107625 36.63819239 -62.29623298 38.46431097 -66.39453125 42.25390625 C-72.20828618 48.84861334 -73.52334509 54.75878882 -73.2890625 63.328125 C-72.23715518 72.66122423 -67.29773082 78.04763249 -60.33203125 83.96484375 C-58.39153621 85.47377269 -56.4806315 86.82949347 -54.390625 88.11328125 C-51.49108696 90.14295788 -51.03601221 91.60333304 -49.890625 94.86328125 C-48.900625 95.19328125 -47.910625 95.52328125 -46.890625 95.86328125 C-45.8310451 97.49271925 -44.84319144 99.16905725 -43.890625 100.86328125 C-41.92783887 103.69389683 -39.94833745 106.50979456 -37.94335938 109.31054688 C-34.890625 113.64653248 -34.890625 113.64653248 -34.890625 115.86328125 C-33.900625 116.19328125 -32.910625 116.52328125 -31.890625 116.86328125 C-27.890625 122.12042411 -27.890625 122.12042411 -27.890625 125.86328125 C-42.66144039 126.46937854 -57.51311001 124.64732415 -69.890625 115.86328125 C-69.890625 115.20328125 -69.890625 114.54328125 -69.890625 113.86328125 C-71.2209375 113.52296875 -71.2209375 113.52296875 -72.578125 113.17578125 C-76.38848301 111.66601676 -78.16013006 109.88119672 -80.890625 106.86328125 C-81.53 106.26515625 -82.169375 105.66703125 -82.828125 105.05078125 C-85.3084127 102.42017308 -87.39681228 99.58794638 -89.5234375 96.66796875 C-90.90846081 94.75435385 -90.90846081 94.75435385 -92.890625 92.86328125 C-92.890625 91.87328125 -92.890625 90.88328125 -92.890625 89.86328125 C-93.550625 89.53328125 -94.210625 89.20328125 -94.890625 88.86328125 C-97.90495958 83.77009524 -99.79063368 78.47674527 -101.578125 72.86328125 C-101.79251221 72.1993335 -102.00689941 71.53538574 -102.2277832 70.85131836 C-107.49193355 53.75280368 -105.93132229 32.88910919 -97.890625 16.86328125 C-96.3227626 14.43611833 -94.63523184 12.17223546 -92.890625 9.86328125 C-92.18387871 8.55075243 -91.49099228 7.22775234 -90.890625 5.86328125 C-90.230625 5.86328125 -89.570625 5.86328125 -88.890625 5.86328125 C-88.684375 5.30640625 -88.478125 4.74953125 -88.265625 4.17578125 C-86.73491862 1.60141143 -84.87857003 0.0319507 -82.5234375 -1.79296875 C-80.78518588 -3.16399844 -80.78518588 -3.16399844 -79.0546875 -5.1015625 C-56.7141946 -26.11130402 -21.08324009 -17.82675237 0 0 Z M-80.890625 13.86328125 C-78.93934531 15.11621006 -78.93934531 15.11621006 -76.87695312 14.31787109 C-76.06677734 14.03121582 -75.25660156 13.74456055 -74.421875 13.44921875 C-68.97819635 11.73438176 -64.06683546 11.41282203 -58.390625 11.48828125 C-57.08158203 11.47087891 -57.08158203 11.47087891 -55.74609375 11.453125 C-41.77961255 11.51519825 -30.22850478 17.22823937 -20.1171875 26.58203125 C-16.48994125 30.29836776 -13.59285794 34.02882257 -11.265625 38.67578125 C-10.86085938 39.46597656 -10.45609375 40.25617187 -10.0390625 41.0703125 C-7.30706531 47.71445533 -6.50253229 53.93853128 -6.515625 61.05078125 C-6.51578613 61.87723145 -6.51594727 62.70368164 -6.51611328 63.55517578 C-6.65128407 70.8842781 -8.14912176 77.0395396 -10.890625 83.86328125 C-11.45136719 85.27480469 -11.45136719 85.27480469 -12.0234375 86.71484375 C-12.30960937 87.42382812 -12.59578125 88.1328125 -12.890625 88.86328125 C-10.580625 90.84328125 -8.270625 92.82328125 -5.890625 94.86328125 C3.7940018 81.80029627 7.84685143 66.82262381 5.68359375 50.6875 C2.50441056 34.71356727 -5.73535423 21.07811763 -19.328125 11.92578125 C-38.31152153 0.68135461 -63.10391438 -0.25315575 -80.890625 13.86328125 Z " fill="#19B4ED" transform="translate(301.890625,512.13671875)"/>
<path d="M0 0 C1.64066844 0.90616991 3.29903069 1.78009719 4.95849609 2.65136719 C16.25218006 8.82229516 33.50139174 20.43821131 37.75927734 32.97167969 C34.33606505 34.68328583 30.46899806 33.92713794 26.70458984 33.81152344 C23.73257543 33.97313165 22.31084412 34.56334737 19.75927734 35.97167969 C18.76927734 35.97167969 17.77927734 35.97167969 16.75927734 35.97167969 C15.57337435 34.58247903 14.39571417 33.18514721 13.26708984 31.74902344 C10.45337922 28.43234382 7.10226889 25.73655991 3.75927734 22.97167969 C3.17662109 22.46636719 2.59396484 21.96105469 1.99365234 21.44042969 C-4.34469307 16.25952126 -11.80844555 13.23326911 -19.24072266 9.97167969 C-20.05025391 9.57851563 -20.85978516 9.18535156 -21.69384766 8.78027344 C-43.47541453 -1.20947396 -72.34573929 -0.95617816 -94.71142578 6.83203125 C-99.63851552 8.69882899 -104.43705764 10.81088114 -109.24072266 12.97167969 C-110.72572266 13.46667969 -110.72572266 13.46667969 -112.24072266 13.97167969 C-112.57072266 14.63167969 -112.90072266 15.29167969 -113.24072266 15.97167969 C-114.86071013 17.03305079 -116.51257598 18.04600501 -118.17822266 19.03417969 C-148.31669885 37.94383164 -164.25833225 74.89826986 -173.24072266 107.97167969 C-177.54201198 108.68944737 -181.34777714 109.06807023 -185.67822266 108.53417969 C-186.54318359 108.43234375 -187.40814453 108.33050781 -188.29931641 108.22558594 C-188.93998047 108.14179688 -189.58064453 108.05800781 -190.24072266 107.97167969 C-190.94657371 96.45846477 -189.3802338 86.79846667 -185.83837891 75.83642578 C-185.36733339 74.36671759 -184.93701793 72.88395461 -184.52197266 71.39746094 C-176.03030288 42.06768045 -151.22134089 16.39490054 -125.18554688 1.82128906 C-117.13062409 -2.51057899 -108.95211921 -6.21328387 -100.24072266 -9.02832031 C-99.26232422 -9.37636719 -98.28392578 -9.72441406 -97.27587891 -10.08300781 C-65.78375087 -20.74906848 -28.757603 -15.89616246 0 0 Z " fill="#3E3B3B" transform="translate(414.24072265625,305.0283203125)"/>
<path d="M0 0 C3.49475219 3.44464821 6.83501118 6.98146014 10.125 10.625 C26.88366781 28.93319304 44.97130099 43.2065071 68 53 C68.96808594 53.43054688 69.93617188 53.86109375 70.93359375 54.3046875 C77.84848248 57.20012856 84.8317865 59.06431309 92.125 60.75 C93.03113037 60.96084229 93.93726074 61.17168457 94.87084961 61.38891602 C95.76167236 61.58541748 96.65249512 61.78191895 97.5703125 61.984375 C98.35164551 62.15678711 99.13297852 62.32919922 99.93798828 62.50683594 C108.26409816 63.84782955 116.59972453 64.15806441 125.01953125 64.16796875 C126.03939621 64.17129715 127.05926117 64.17462555 128.11003113 64.17805481 C130.25881505 64.18308488 132.40760668 64.18546436 134.55639648 64.18530273 C137.76625246 64.18746879 140.97575238 64.20561067 144.18554688 64.22460938 C162.33294954 64.2757726 180.3661537 63.50849472 198.125 59.5 C199.13691406 59.28730469 200.14882813 59.07460938 201.19140625 58.85546875 C205.46692988 57.929957 209.08928245 56.95898268 213 55 C216.89330225 55 218.65938351 56.42186877 221.3125 59.0625 C222.199375 60.031875 223.08625 61.00125 224 62 C222.95781239 65.45607804 221.80056519 66.11458353 218.59375 67.95703125 C217.2351903 68.58864234 215.87028857 69.20675561 214.5 69.8125 C213.81035156 70.13669922 213.12070312 70.46089844 212.41015625 70.79492188 C210.63770062 71.60168287 208.82066993 72.30889708 207 73 C206.34 72.67 205.68 72.34 205 72 C204.67 72.66 204.34 73.32 204 74 C202.14916992 74.57836914 202.14916992 74.57836914 199.73046875 75.03515625 C198.84657471 75.20426514 197.96268066 75.37337402 197.05200195 75.54760742 C196.10671631 75.71752197 195.16143066 75.88743652 194.1875 76.0625 C193.23512451 76.23950439 192.28274902 76.41650879 191.30151367 76.59887695 C185.22502891 77.69556803 179.25224867 78.51526652 173.08203125 78.82421875 C170.94011828 78.87561528 170.94011828 78.87561528 169 80 C167.21268076 80.0908238 165.42194511 80.11753799 163.63232422 80.11352539 C162.51131317 80.11344986 161.39030212 80.11337433 160.23532104 80.11329651 C159.02071198 80.10813522 157.80610291 80.10297394 156.5546875 80.09765625 C155.31453888 80.0962413 154.07439026 80.09482635 152.79666138 80.09336853 C149.49881867 80.08871096 146.20102454 80.07972439 142.90319824 80.06866455 C139.53833613 80.05843731 136.17346692 80.05386809 132.80859375 80.04882812 C126.20571007 80.03778269 119.60285901 80.02103247 113 80 C113 79.34 113 78.68 113 78 C112.25878906 78.04640625 111.51757812 78.0928125 110.75390625 78.140625 C101.62418226 78.4535164 93.7020206 76.82337748 84.96142578 74.50390625 C83.24411797 74.06271589 81.51139842 73.68243166 79.77734375 73.3125 C67.59451992 70.68901169 56.68543148 64.51243614 45.8347168 58.57739258 C43.23863993 57.16041603 40.81403421 55.9380114 38 55 C38 54.34 38 53.68 38 53 C37.34902344 52.79890625 36.69804687 52.5978125 36.02734375 52.390625 C31.74113952 50.42173635 28.26424752 47.64962393 24.5625 44.75 C23.7684375 44.12810791 22.974375 43.50621582 22.15625 42.86547852 C10.49583174 33.57153559 -1.09779324 22.78191047 -9 10 C-9 8.68 -9 7.36 -9 6 C-7.03125 4.296875 -7.03125 4.296875 -4.5 2.75 C-3.6646875 2.22921875 -2.829375 1.7084375 -1.96875 1.171875 C-1.3190625 0.78515625 -0.669375 0.3984375 0 0 Z " fill="#3D3B3B" transform="translate(266,591)"/>
<path d="M0 0 C3.89246541 3.21742073 7.21387894 6.94415146 10.46484375 10.796875 C11.58185573 12.11326212 12.729815 13.40414768 13.91015625 14.6640625 C17.22383572 18.24663243 19.171875 20.70883836 19.171875 25.80859375 C18.00016513 32.28031515 15.20686967 35.47566636 10.5546875 39.984375 C9.57434036 40.96122505 9.57434036 40.96122505 8.57418823 41.95780945 C7.19643037 43.32586132 5.81267823 44.68789984 4.42333984 46.04418945 C2.29845144 48.11955405 0.19292671 50.21311076 -1.91015625 52.31054688 C-3.25411794 53.64042576 -4.59913477 54.96923935 -5.9453125 56.296875 C-6.57460663 56.92080643 -7.20390076 57.54473785 -7.8522644 58.18757629 C-8.44612946 58.76545395 -9.03999451 59.3433316 -9.65185547 59.9387207 C-10.16988739 60.44611282 -10.68791931 60.95350494 -11.22164917 61.47627258 C-15.26928024 64.83315132 -18.60869675 65.25854446 -23.828125 64.80859375 C-29.75534697 62.54857386 -33.63838284 58.48021348 -38.015625 54.05859375 C-38.72654297 53.36765625 -39.43746094 52.67671875 -40.16992188 51.96484375 C-44.30106113 47.82981819 -47.06639906 44.41470613 -48.828125 38.80859375 C-48.68473951 30.63562096 -43.95745629 25.62594509 -38.3984375 20.11328125 C-37.88562225 19.59855255 -37.37280701 19.08382385 -36.8444519 18.55349731 C-35.7661066 17.47379975 -34.68526652 16.39658854 -33.60205078 15.32177734 C-31.95760276 13.68804234 -30.32410589 12.04390411 -28.69140625 10.3984375 C-27.63605727 9.34441029 -26.58008797 8.29100373 -25.5234375 7.23828125 C-25.04198273 6.75277802 -24.56052795 6.26727478 -24.06448364 5.76705933 C-16.84168583 -1.35826147 -9.49512225 -6.18806044 0 0 Z " fill="#464241" transform="translate(553.828125,581.19140625)"/>
<path d="M0 0 C4.47076864 3.04825135 7.59019904 6.87473039 9.75 11.875 C10.10440063 13.84524536 10.10440063 13.84524536 10.25244141 15.93408203 C10.3123526 16.72235382 10.37226379 17.51062561 10.43399048 18.32278442 C10.48928925 19.16759369 10.54458801 20.01240295 10.6015625 20.8828125 C10.69719986 22.20380447 10.69719986 22.20380447 10.79476929 23.55148315 C10.92805383 25.41555069 11.05723784 27.27991532 11.18261719 29.14453125 C11.37294386 31.96948145 11.57594744 34.79329032 11.78125 37.6171875 C11.90960908 39.43484268 12.03723608 41.25254974 12.1640625 43.0703125 C12.25308334 44.31930832 12.25308334 44.31930832 12.34390259 45.59353638 C12.72694198 51.36114687 12.8146045 57.09552941 12.75 62.875 C11.96238281 62.96136719 11.17476562 63.04773438 10.36328125 63.13671875 C1.08471471 64.33359893 -7.97034801 66.49080446 -15.9375 71.59765625 C-17.0821875 72.22994141 -17.0821875 72.22994141 -18.25 72.875 C-19.24 72.545 -20.23 72.215 -21.25 71.875 C-21.745 61.48 -21.745 61.48 -22.25 50.875 C-22.91 50.545 -23.57 50.215 -24.25 49.875 C-24.62890625 47.21484375 -24.62890625 47.21484375 -24.8125 43.8125 C-25.05976877 39.48781974 -25.46072298 35.23930382 -26.01635742 30.94360352 C-27.9639561 13.70013057 -27.9639561 13.70013057 -24.3125 7.125 C-18.09017434 -0.65728899 -9.30133376 -3.21969245 0 0 Z " fill="#17B5ED" transform="translate(235.25,425.125)"/>
<path d="M0 0 C7.3392077 1.82178915 12.36396024 5.02584391 18 10 C18.70382812 10.598125 19.40765625 11.19625 20.1328125 11.8125 C28.80389217 19.72527232 33.73472858 30.77576127 34.3359375 42.48046875 C34.36532547 44.04925796 34.37788843 45.61843821 34.375 47.1875 C34.3747583 48.42717529 34.3747583 48.42717529 34.37451172 49.69189453 C34.23934093 57.02099685 32.74150324 63.17625835 30 70 C29.62617188 70.94101562 29.25234375 71.88203125 28.8671875 72.8515625 C28.43792969 73.91503906 28.43792969 73.91503906 28 75 C29.98 76.65 31.96 78.3 34 80 C34.66 79.67 35.32 79.34 36 79 C35.34 80.32 34.68 81.64 34 83 C29.67276648 80.90194738 27.03802204 78.05915524 24.046875 74.40625 C21.97565535 71.89400663 21.97565535 71.89400663 19.328125 69.40625 C14.51360407 64.45572565 11.47395846 60.73501124 11.56811523 53.59887695 C11.64754832 52.11921229 11.73297527 50.63985694 11.82446289 49.16088867 C12.2002564 42.65179205 11.01082191 38.27382142 7 33 C5.6245188 31.95951291 4.22775 30.9466501 2.8125 29.9609375 C0.24783399 27.77263388 -0.8623198 26.66234357 -1.5546875 23.33154297 C-1.56285238 20.25797607 -1.34191384 17.3041742 -1 14.25 C-0.91621094 13.20972656 -0.83242188 12.16945313 -0.74609375 11.09765625 C-0.58956268 9.17704484 -0.41570459 7.25770817 -0.21875 5.34082031 C0.04652238 2.89400557 0.04652238 2.89400557 0 0 Z " fill="#26BDF0" transform="translate(262,526)"/>
<path d="M0 0 C5.32319025 3.67553613 8.25648231 8.51141136 9.625 14.8125 C10.43418315 23.07981703 10.43606194 30.76826601 5.625 37.8125 C1.90293427 41.8808044 -1.65256066 43.78623947 -7.0078125 44.71484375 C-12.08056502 44.92411572 -16.35915125 43.56559923 -20.203125 40.22265625 C-25.94306858 33.85577709 -27.26832343 27.23994928 -27.375 18.8125 C-26.631582 12.02733576 -23.81607699 6.0749616 -18.8125 1.4375 C-13.16506936 -2.32745376 -6.26046952 -2.20275779 0 0 Z " fill="#38C9F3" transform="translate(498.375,463.1875)"/>
<path d="M0 0 C18.66035472 6.24337102 37.03085333 17.79028666 46.7890625 35.4453125 C54.34462174 51.38510522 55.96956732 70.16395468 50 87 C48.49959715 90.4384232 46.86020638 93.74280069 45 97 C43 95 43 95 42.8046875 92.8203125 C42.82789063 91.93085937 42.85109375 91.04140625 42.875 90.125 C42.89046875 89.13886719 42.9059375 88.15273438 42.921875 87.13671875 C42.97318049 85.0768034 43.02523988 83.01690665 43.078125 80.95703125 C43.20909891 72.52012844 42.39551412 64.78970887 39 57 C38.74669922 56.12408203 38.74669922 56.12408203 38.48828125 55.23046875 C35.47618396 44.88957422 29.90123606 34.69484025 23.03125 26.41796875 C22 25 22 25 22 23 C21.34 23 20.68 23 20 23 C19.67 21.68 19.34 20.36 19 19 C18.34 19 17.68 19 17 19 C15.5546875 17.4609375 15.5546875 17.4609375 13.875 15.375 C10.75927751 11.6754895 7.49453234 8.9374622 3.50390625 6.2265625 C3.00761719 5.82179688 2.51132812 5.41703125 2 5 C2 4.34 2 3.68 2 3 C1.34 3 0.68 3 0 3 C0 2.01 0 1.02 0 0 Z " fill="#3D3C3C" transform="translate(293,489)"/>
<path d="M0 0 C4.58521842 4.83995278 6.48900588 9.36783468 6.6875 16.0625 C6.46799481 21.19608916 5.61164824 24.17079497 1.78515625 27.7421875 C-2.38305668 31.3498828 -4.93299339 32.80006555 -10.5234375 32.71875 C-15.97949188 31.87641178 -19.79168513 28.58550299 -23.125 24.375 C-26.40806004 18.31396608 -27.07363297 14.86273436 -25.6328125 8.10546875 C-24.2668199 3.88056242 -22.31767011 1.02707336 -18.75 -1.625 C-12.23239916 -4.85686818 -6.06191466 -3.58204048 0 0 Z " fill="#3E3B3B" transform="translate(260.75,558.625)"/>
<path d="M0 0 C2.85986482 2.85986482 3.39330891 6.32323925 4.4375 10.125 C5.68581446 14.61420659 6.96183032 18.98620936 8.72265625 23.3046875 C9.98000975 26.94216889 10.11073171 27.61121602 9 31 C6.56242587 31.02698422 4.12515085 31.04683099 1.6875 31.0625 C0.99720703 31.07087891 0.30691406 31.07925781 -0.40429688 31.08789062 C-3.5483025 31.10307906 -5.99420019 31.00193327 -9 30 C-7.3130091 22.88172134 -5.42344475 15.83415047 -3.375 8.8125 C-3.04786011 7.68050171 -3.04786011 7.68050171 -2.71411133 6.52563477 C-1.12102332 1.12102332 -1.12102332 1.12102332 0 0 Z " fill="#36C2F2" transform="translate(681,462)"/>
<path d="M0 0 C0.99 0 1.98 0 3 0 C3.33 20.46 3.66 40.92 4 62 C7.3 62.33 10.6 62.66 14 63 C14 64.32 14 65.64 14 67 C9.38 67 4.76 67 0 67 C0 44.89 0 22.78 0 0 Z " fill="#05A5EA" transform="translate(530,456)"/>
<path d="M0 0 C4.95 0 9.9 0 15 0 C15 15.51 15 31.02 15 47 C14.67 47 14.34 47 14 47 C14 31.82 14 16.64 14 1 C10.04 1 6.08 1 2 1 C2.01571045 2.26070313 2.0314209 3.52140625 2.04760742 4.8203125 C2.10215125 9.52418561 2.13643876 14.22803107 2.16479492 18.93212891 C2.17982599 20.9631013 2.20025647 22.99404154 2.22631836 25.02490234 C2.26295232 27.95418259 2.27978351 30.88303144 2.29296875 33.8125 C2.30845261 34.71178223 2.32393646 35.61106445 2.33988953 36.53759766 C2.34142492 42.36691411 1.48599824 46.69935765 -1 52 C-1.99 52.495 -1.99 52.495 -3 53 C-2.67 37.16 -2.34 21.32 -2 5 C-1.34 5 -0.68 5 0 5 C0 3.35 0 1.7 0 0 Z " fill="#86DCF8" transform="translate(900,451)"/>
<path d="M0 0 C2 1 2 1 2.73828125 2.71484375 C4.41451011 9.20310377 3.94782453 13.97178997 1 20 C-4.62163414 27.17240327 -11.36183917 33.54823672 -17.80371094 39.98901367 C-19.26787868 41.45540584 -20.7238003 42.92968835 -22.1796875 44.40429688 C-23.12451158 45.35204966 -24.06980674 46.29933311 -25.015625 47.24609375 C-26.27294434 48.50957642 -26.27294434 48.50957642 -27.55566406 49.79858398 C-32.64557861 54.38265904 -37.06081985 56.12240919 -43.8125 56.25 C-44.62332031 56.27578125 -45.43414063 56.3015625 -46.26953125 56.328125 C-52.99190735 55.52028581 -57.41472864 52.19133847 -62.046875 47.484375 C-62.58475647 46.95032043 -63.12263794 46.41626587 -63.67681885 45.86602783 C-64.8042751 44.74127718 -65.92676179 43.61152482 -67.04443359 42.47705078 C-68.74550593 40.75455068 -70.46688158 39.05445219 -72.19140625 37.35546875 C-73.2903472 36.25388429 -74.38804652 35.1510595 -75.484375 34.046875 C-75.99377625 33.54557068 -76.50317749 33.04426636 -77.02801514 32.527771 C-81.03178642 28.4183219 -83.5757916 24.2472143 -84.328125 18.48828125 C-84.30234375 17.77027344 -84.2765625 17.05226563 -84.25 16.3125 C-84.22679687 15.22388672 -84.22679687 15.22388672 -84.203125 14.11328125 C-83.99913252 11.99097487 -83.57399032 10.0506267 -83 8 C-82.34 8 -81.68 8 -81 8 C-81.05800781 8.9178125 -81.11601562 9.835625 -81.17578125 10.78125 C-81.22089844 12.0084375 -81.26601563 13.235625 -81.3125 14.5 C-81.37050781 15.7065625 -81.42851562 16.913125 -81.48828125 18.15625 C-80.25085687 27.89725474 -72.16869934 34.28885677 -65.5 40.875 C-64.55287679 41.83283066 -63.60625863 42.791161 -62.66015625 43.75 C-61.75136719 44.65492188 -60.84257813 45.55984375 -59.90625 46.4921875 C-59.08447266 47.31058105 -58.26269531 48.12897461 -57.41601562 48.97216797 C-52.17623799 53.37006541 -46.92371273 53.54667225 -40.296875 53.44921875 C-32.92310305 52.44449864 -27.8856173 47.29275208 -23 42 C-13 32 -13 32 -10.82421875 29.9296875 C-3.89980043 23.24326064 0.32002132 18.26871667 0.984375 8.37890625 C1.00333643 5.49202845 0.66503889 2.80794198 0 0 Z " fill="#D9EBF2" transform="translate(581,597)"/>
<path d="M0 0 C3.75136049 1.31021782 6.45096473 3.85924322 9.125 6.7421875 C10.3125 9.3671875 10.3125 9.3671875 10.125 11.7421875 C8.5 14.0546875 8.5 14.0546875 6.125 15.7421875 C3.375 15.9921875 3.375 15.9921875 1.125 15.7421875 C1.125 15.0821875 1.125 14.4221875 1.125 13.7421875 C0.465 13.7421875 -0.195 13.7421875 -0.875 13.7421875 C-2.88671966 11.73046784 -4.44226008 10.14330104 -5.875 7.7421875 C-5.875 4.68685704 -5.29694646 3.34496816 -3.5625 0.8671875 C-1.875 -0.2578125 -1.875 -0.2578125 0 0 Z " fill="#3D3C3C" transform="translate(499.875,634.2578125)"/>
<path d="M0 0 C0.33 0 0.66 0 1 0 C1 4.29 1 8.58 1 13 C0.01 13 -0.98 13 -2 13 C-2 14.65 -2 16.3 -2 18 C-3.66015625 17.25130208 -5.3203125 16.50260417 -6.98046875 15.75390625 C-11.42520557 14.09465247 -15.59666693 13.88567766 -20.3125 13.9375 C-21.91544922 13.95103516 -21.91544922 13.95103516 -23.55078125 13.96484375 C-24.35902344 13.97644531 -25.16726563 13.98804688 -26 14 C-26 15.65 -26 17.3 -26 19 C-27.1875 17.3125 -27.1875 17.3125 -28 15 C-26.81146319 12.22674744 -25.79981345 10.51251904 -23.23828125 8.87109375 C-15.65840935 5.92116106 -7.22671806 8.10931278 0 11 C0 7.37 0 3.74 0 0 Z " fill="#51CCF4" transform="translate(968,453)"/>
<path d="M0 0 C5.28 0 10.56 0 16 0 C16 0.33 16 0.66 16 1 C11.05 1 6.1 1 1 1 C1 22.45 1 43.9 1 66 C4.96 66 8.92 66 13 66 C13 50.16 13 34.32 13 18 C14.65 19.65 16.3 21.3 18 23 C17.67 23.66 17.34 24.32 17 25 C16.34 24.67 15.68 24.34 15 24 C14.67 38.19 14.34 52.38 14 67 C9.38 67 4.76 67 0 67 C0 44.89 0 22.78 0 0 Z " fill="#A9E5FA" transform="translate(533,451)"/>
<path d="M0 0 C4.62 0 9.24 0 14 0 C14 22.11 14 44.22 14 67 C8.72 67 3.44 67 -2 67 C-1.505 66.01 -1.505 66.01 -1 65 C5.93 65.495 5.93 65.495 13 66 C13 44.55 13 23.1 13 1 C9.04 1 5.08 1 1 1 C1 16.51 1 32.02 1 48 C-0.65 46.35 -2.3 44.7 -4 43 C-3.67 42.34 -3.34 41.68 -3 41 C-2.01 41.66 -1.02 42.32 0 43 C0 28.81 0 14.62 0 0 Z " fill="#A9E5FA" transform="translate(579,451)"/>
<path d="M0 0 C0.66 0.33 1.32 0.66 2 1 C-4.02465232 8.22689919 -10.68861863 14.77182693 -17.375 21.375 C-19.5523492 23.52577301 -21.72636102 25.67984123 -23.8984375 27.8359375 C-24.39628754 28.3254892 -24.89413757 28.81504089 -25.40707397 29.31942749 C-29.00985668 32.7399665 -29.00985668 32.7399665 -30.09765625 37.3828125 C-30.08605469 38.28773438 -30.07445312 39.19265625 -30.0625 40.125 C-30.04896484 41.49011719 -30.04896484 41.49011719 -30.03515625 42.8828125 C-30.02355469 43.58148437 -30.01195312 44.28015625 -30 45 C-30.66 44.67 -31.32 44.34 -32 44 C-33.42566925 38.19548949 -33.01517734 35.20799619 -30.24829102 30.00723267 C-28.30207253 26.87774341 -25.92183452 24.40604747 -23.28125 21.85546875 C-22.74149536 21.31900223 -22.20174072 20.78253571 -21.64562988 20.22981262 C-19.93963213 18.53940046 -18.21995533 16.86369486 -16.5 15.1875 C-15.34678839 14.04579781 -14.19443692 12.90322614 -13.04296875 11.75976562 C-11.9356688 10.66588367 -10.82762147 9.57275763 -9.71875 8.48046875 C-9.20509888 7.97420456 -8.69144775 7.46794037 -8.16223145 6.94633484 C-5.56886529 4.42127581 -2.96052105 2.08618168 0 0 Z " fill="#8D8C8C" transform="translate(538,580)"/>
<path d="M0 0 C5.28 0 10.56 0 16 0 C16 1.65 16 3.3 16 5 C10.72 5 5.44 5 0 5 C0 21.5 0 38 0 55 C-0.33 55 -0.66 55 -1 55 C-1.02534095 47.81006624 -1.04286308 40.62014399 -1.05493164 33.43017578 C-1.05996249 30.98388234 -1.06678784 28.53759191 -1.07543945 26.09130859 C-1.08755952 22.57648984 -1.09324079 19.06171082 -1.09765625 15.546875 C-1.10281754 14.4519574 -1.10797882 13.35703979 -1.11329651 12.22894287 C-1.11337204 11.20818665 -1.11344757 10.18743042 -1.11352539 9.13574219 C-1.115746 8.23861511 -1.11796661 7.34148804 -1.12025452 6.41717529 C-1 4 -1 4 0 0 Z " fill="#3EC8F3" transform="translate(808,463)"/>
<path d="M0 0 C2 1 2 1 2.73828125 2.71484375 C4.41443897 9.20282841 3.94820619 13.97213893 1 20 C-0.7890625 22.27978516 -0.7890625 22.27978516 -2.9375 24.6015625 C-3.74098877 25.46998779 -4.54447754 26.33841309 -5.37231445 27.2331543 C-9.45314426 31.53010164 -13.56715189 35.79025722 -17.7487793 39.98901367 C-19.20369444 41.45380437 -20.6475916 42.92895495 -22.09179688 44.40429688 C-23.03319717 45.35221544 -23.9752315 46.29950483 -24.91796875 47.24609375 C-26.16743286 48.50957642 -26.16743286 48.50957642 -27.44213867 49.79858398 C-30.13910518 52.11972047 -32.76384791 53.54878298 -36 55 C-34.90311975 51.70935926 -34.50401976 51.40912584 -31.75 49.625 C-28.45098458 47.37628336 -25.75813454 44.90329952 -23 42 C-13 32 -13 32 -10.82421875 29.9296875 C-3.89980043 23.24326064 0.32002132 18.26871667 0.984375 8.37890625 C1.00333643 5.49202845 0.66503889 2.80794198 0 0 Z " fill="#BCE0EE" transform="translate(581,597)"/>
<path d="M0 0 C1.65 1.65 3.3 3.3 5 5 C4.67 5.66 4.34 6.32 4 7 C3.34 6.67 2.68 6.34 2 6 C1.67 20.19 1.34 34.38 1 49 C-3.29 49 -7.58 49 -12 49 C-12 48.67 -12 48.34 -12 48 C-8.04 48 -4.08 48 0 48 C0 32.16 0 16.32 0 0 Z " fill="#C9EFFC" transform="translate(546,469)"/>
<path d="M0 0 C4.29 0 8.58 0 13 0 C13 0.33 13 0.66 13 1 C9.04 1 5.08 1 1 1 C1 16.51 1 32.02 1 48 C-0.65 46.35 -2.3 44.7 -4 43 C-3.67 42.34 -3.34 41.68 -3 41 C-2.01 41.66 -1.02 42.32 0 43 C0 28.81 0 14.62 0 0 Z " fill="#CBF0FD" transform="translate(579,451)"/>
<path d="M0 0 C0.66 0.66 1.32 1.32 2 2 C4.89223503 2.46396693 4.89223503 2.46396693 8.125 2.625 C9.76855469 2.73714844 9.76855469 2.73714844 11.4453125 2.8515625 C12.28835938 2.90054688 13.13140625 2.94953125 14 3 C14 4.32 14 5.64 14 7 C8.72 7 3.44 7 -2 7 C-1.34 4.69 -0.68 2.38 0 0 Z " fill="#04A5EA" transform="translate(648,516)"/>
<path d="M0 0 C0.33 0 0.66 0 1 0 C1.6875 2.75 1.6875 2.75 2 6 C0.6875 8.0625 0.6875 8.0625 -1 10 C-1.66 11.65 -2.32 13.3 -3 15 C-8.28 15 -13.56 15 -19 15 C-18.34 12.69 -17.68 10.38 -17 8 C-16 11 -16 11 -17 14 C-12.71 14 -8.42 14 -4 14 C-3.525625 12.4325 -3.05125 10.865 -2.5625 9.25 C-2.29566406 8.36828125 -2.02882813 7.4865625 -1.75390625 6.578125 C-1.11531506 4.39434165 -0.53224167 2.21164502 0 0 Z " fill="#AAE5FA" transform="translate(668,503)"/>
<path d="M0 0 C0 3.99191204 -1.25498212 5.18079244 -4 8 C-6.75 8.8125 -6.75 8.8125 -9 9 C-9 7.02 -9 5.04 -9 3 C-7.88625 2.87625 -6.7725 2.7525 -5.625 2.625 C-1.96896323 2.3534187 -1.96896323 2.3534187 0 0 Z " fill="#1CBBF0" transform="translate(996,515)"/>
<path d="M0 0 C1.81155838 2.71733757 3.01896005 4.90595092 4 8 C3.55078125 10.16015625 3.55078125 10.16015625 3 12 C0.56242587 12.02698422 -1.87484915 12.04683099 -4.3125 12.0625 C-5.00279297 12.07087891 -5.69308594 12.07925781 -6.40429688 12.08789062 C-9.5483025 12.10307906 -11.99420019 12.00193327 -15 11 C-14.67 10.34 -14.34 9.68 -14 9 C-8.72 9.33 -3.44 9.66 2 10 C1.34 8.02 0.68 6.04 0 4 C0 2.68 0 1.36 0 0 Z " fill="#A7E4FA" transform="translate(687,481)"/>
<path d="M0 0 C1.23593891 3.70781672 0.5678132 4.67510253 -0.9375 8.1875 C-1.31777344 9.08855469 -1.69804687 9.98960937 -2.08984375 10.91796875 C-2.54037109 11.94857422 -2.54037109 11.94857422 -3 13 C-1.02 14.65 0.96 16.3 3 18 C3.66 17.67 4.32 17.34 5 17 C4.34 18.32 3.68 19.64 3 21 C-0.47600706 19.12107727 -3.12100467 17.5492134 -5 14 C-4.85936686 9.07783996 -2.05944242 4.39667011 0 0 Z " fill="#C9EBF7" transform="translate(293,588)"/>
<path d="M0 0 C3.63 0 7.26 0 11 0 C10.01 0.33 9.02 0.66 8 1 C8 2.32 8 3.64 8 5 C6.02 5 4.04 5 2 5 C2 3.68 2 2.36 2 1 C1.34 0.67 0.68 0.34 0 0 Z " fill="#39C4F2" transform="translate(985,497)"/>
<path d="M0 0 C0 3.99904969 -1.72586967 5.80200422 -4 9 C-6.97 8.67 -9.94 8.34 -13 8 C-11.68 7.34 -10.36 6.68 -9 6 C-7.5940058 5.16266393 -6.19800739 4.30831609 -4.8125 3.4375 C-4.11769531 3.00308594 -3.42289063 2.56867187 -2.70703125 2.12109375 C-1.04366897 1.11129361 -1.04366897 1.11129361 0 0 Z " fill="#7BD9F7" transform="translate(967,510)"/>
<path d="M0 0 C0.33 0 0.66 0 1 0 C1.22262303 6.7281627 0.95021536 12.53991163 -1 19 C-1.33 19 -1.66 19 -2 19 C-2.19818283 12.29481414 -2.30844801 6.34823202 0 0 Z " fill="#08A9EB" transform="translate(398,478)"/>
<path d="M0 0 C0.66 0.33 1.32 0.66 2 1 C0.46817277 2.61356504 -1.07594563 4.21546607 -2.625 5.8125 C-3.48351562 6.70582031 -4.34203125 7.59914063 -5.2265625 8.51953125 C-8.01532725 11.01370817 -10.59250162 12.49610409 -14 14 C-12.90311975 10.70935926 -12.50401976 10.40912584 -9.75 8.625 C-6.45722869 6.38916763 -3.74024324 3.90143401 -1 1 C-0.67 0.67 -0.34 0.34 0 0 Z " fill="#B9DBE8" transform="translate(559,638)"/>
<path d="M0 0 C0.66 0.99 1.32 1.98 2 3 C1.51917969 3.50015625 1.03835938 4.0003125 0.54296875 4.515625 C-1.51965726 7.83671397 -1.56173088 10.94817916 -1.6875 14.75 C-1.72166016 15.44738281 -1.75582031 16.14476562 -1.79101562 16.86328125 C-1.87308295 18.57497108 -1.93822919 20.2874576 -2 22 C-2.33 22 -2.66 22 -3 22 C-4.48071047 15.48487392 -3.61310856 9.45243423 -2 3 C-1.34 2.01 -0.68 1.02 0 0 Z " fill="#A2E4FA" transform="translate(417,471)"/>
<path d="M0 0 C0 3.58912412 -0.66436554 4.10857029 -3 6.6875 C-3.556875 7.31011719 -4.11375 7.93273437 -4.6875 8.57421875 C-5.120625 9.04472656 -5.55375 9.51523437 -6 10 C-7.32 9.34 -8.64 8.68 -10 8 C-9.195625 7.4121875 -9.195625 7.4121875 -8.375 6.8125 C-5.50791468 4.6244612 -2.76035432 2.32120704 0 0 Z " fill="#7AD9F7" transform="translate(909,509)"/>
<path d="M0 0 C1.65 1.65 3.3 3.3 5 5 C4.67 5.66 4.34 6.32 4 7 C3.34 6.67 2.68 6.34 2 6 C1.67 8.97 1.34 11.94 1 15 C0.67 15 0.34 15 0 15 C0 10.05 0 5.1 0 0 Z " fill="#ABE5FA" transform="translate(546,469)"/>
<path d="M0 0 C0.33 0 0.66 0 1 0 C1.12375 1.134375 1.2475 2.26875 1.375 3.4375 C1.58125 4.613125 1.7875 5.78875 2 7 C2.66 7.33 3.32 7.66 4 8 C4 9.32 4 10.64 4 12 C2.68 12 1.36 12 0 12 C0 8.04 0 4.08 0 0 Z " fill="#11B0ED" transform="translate(983,490)"/>
<path d="M0 0 C1.32 0.33 2.64 0.66 4 1 C4 2.98 4 4.96 4 7 C2.68 6.67 1.36 6.34 0 6 C0 4.02 0 2.04 0 0 Z " fill="#11B0ED" transform="translate(983,517)"/>
<path d="M0 0 C0 3 0 3 -2 5.1875 C-2.66 5.785625 -3.32 6.38375 -4 7 C-4 6.01 -4 5.02 -4 4 C-5.65 4 -7.3 4 -9 4 C-9 3.67 -9 3.34 -9 3 C-7.88625 2.87625 -6.7725 2.7525 -5.625 2.625 C-1.96896323 2.3534187 -1.96896323 2.3534187 0 0 Z " fill="#78D9F7" transform="translate(996,515)"/>
<path d="M0 0 C2 2 2 2 2.125 4.625 C2.08375 5.40875 2.0425 6.1925 2 7 C1.01 6.67 0.02 6.34 -1 6 C-1.33 6.66 -1.66 7.32 -2 8 C-1.125 1.125 -1.125 1.125 0 0 Z " fill="#B1E7FA" transform="translate(681,462)"/>
<path d="M0 0 C0.66 0.33 1.32 0.66 2 1 C-0.31944788 4.47917182 -2.26369964 5.29429766 -6 7 C-4.60667426 3.63279613 -3.0210714 2.0140476 0 0 Z " fill="#9BE0F9" transform="translate(424,464)"/>
<path d="" fill="#3A6170" transform="translate(0,0)"/>
</svg>
